<svg width="24" height="24" viewBox="0 0 24 24" fill="none" xmlns="http://www.w3.org/2000/svg">
<path fill-rule="evenodd" clip-rule="evenodd" d="M14 3.71277V2.5H10V3.71277H14ZM19 4.7234V5.93617H5V4.7234H19ZM6.59975 7.75532V20.1801C6.59975 20.2234 6.62767 20.262 6.66994 20.2786L6.71648 20.2872H17.283C17.3333 20.2872 17.3738 20.2595 17.3909 20.2212L17.3997 20.1801V7.75532H18.5997V20.1801C18.5997 20.8663 18.0802 21.4259 17.4174 21.4932L17.283 21.5H6.71648C6.03626 21.5 5.47417 20.9832 5.40656 20.3155L5.39975 20.1801V7.75532H6.59975ZM10.5992 8.76596V17.8617H9.4V8.76596H10.5992ZM14.5992 17.8617V8.76596H13.4V17.8617H14.5992Z" fill="white"/>
</svg>
