<svg width="32" height="32" viewBox="0 0 32 32" fill="none" xmlns="http://www.w3.org/2000/svg">
<path fill-rule="evenodd" clip-rule="evenodd" d="M26.9924 13.701L16.7257 4.28158C16.3165 3.90614 15.6837 3.90614 15.2745 4.28158L5.0078 13.701C4.79033 13.9005 4.66675 14.1806 4.66675 14.4739V26.9455C4.66675 27.5279 5.14431 28 5.73341 28H12.9334C13.5225 28 14.0001 27.5279 14.0001 26.9455V22.7277H18.0001V26.9455C18.0001 27.5279 18.4776 28 19.0667 28H26.2668C26.8559 28 27.3334 27.5279 27.3334 26.9455V14.4739C27.3334 14.1806 27.2098 13.9005 26.9924 13.701ZM6.26675 14.7034L16.0001 5.77351L25.7334 14.7047V26.4183H19.6001V22.7277L19.5918 22.566C19.5099 21.7685 18.8285 21.1461 18.0001 21.1461H14.0001L13.8365 21.1542C13.0297 21.2352 12.4001 21.9088 12.4001 22.7277V26.4183H6.26675V14.7034Z" fill="#56606B"/>
</svg>
