<svg width="28" height="28" viewBox="0 0 28 28" fill="none" xmlns="http://www.w3.org/2000/svg">
<path d="M14.0117 11.4333C14.595 11.4333 15.0267 11.0367 15.0267 10.5C15.0267 9.94 14.595 9.56667 14.0117 9.56667C13.4167 9.56667 12.985 9.94 12.985 10.5C12.985 11.0367 13.4167 11.4333 14.0117 11.4333Z" fill="#04B395"/>
<path d="M14.8505 19.0167V12.4833H13.1482V19.0167H14.8505Z" fill="#04B395"/>
<path fill-rule="evenodd" clip-rule="evenodd" d="M14 3.5C19.799 3.5 24.5 8.20101 24.5 14C24.5 19.799 19.799 24.5 14 24.5C8.20101 24.5 3.5 19.799 3.5 14C3.5 8.20101 8.20101 3.5 14 3.5ZM13.9991 4.9C8.97333 4.9 4.89912 8.97421 4.89912 14C4.89912 19.0258 8.97333 23.1 13.9991 23.1C19.0249 23.1 23.0991 19.0258 23.0991 14C23.0991 8.97421 19.0249 4.9 13.9991 4.9Z" fill="#04B395"/>
</svg>
