<svg width="16" height="16" viewBox="0 0 16 16" fill="none" xmlns="http://www.w3.org/2000/svg">
<path fill-rule="evenodd" clip-rule="evenodd" d="M8.99747 2C9.35455 2 9.6967 2.14322 9.94729 2.39759L12.2832 4.76861C12.529 5.01807 12.6667 5.35418 12.6667 5.70436V13.4667C12.6667 13.7612 12.4279 14 12.1334 14H3.86671C3.57216 14 3.33337 13.7612 3.33337 13.4667V2.53333C3.33337 2.23878 3.57216 2 3.86671 2H8.99747ZM8.66671 2.8H4.13337V13.2H11.8667V6.196L9.06671 6.19608C8.86789 6.19608 8.70294 6.05102 8.67194 5.86096L8.66671 5.79608V2.8ZM9.00004 11.4667V10.6667H5.66671V11.4667H9.00004ZM10.3334 8.66667V9.46667H5.66671V8.66667H10.3334ZM9.46671 5.396V3.04933L11.7133 5.33006L11.7688 5.39643L9.46671 5.396Z" fill="#12A6BE"/>
</svg>
