<svg width="20" height="20" viewBox="0 0 20 20" fill="none" xmlns="http://www.w3.org/2000/svg">
<path d="M17.8168 12.0453C17.6757 12.0453 17.5345 11.9868 17.433 11.8732L16.185 10.4824C15.994 10.2707 16.0129 9.94361 16.2246 9.75255C16.4363 9.56148 16.7634 9.58041 16.9545 9.79214L18.2024 11.183C18.3935 11.3947 18.3745 11.7217 18.1628 11.9128C18.063 12.0023 17.9408 12.0453 17.8168 12.0453Z" fill="#6B7682"/>
<path d="M14.8252 11.3138C13.0832 11.3138 11.6666 9.89887 11.6666 8.1569C11.6666 6.41492 13.0832 5 14.8252 5C16.5655 5 17.9821 6.41665 17.9821 8.1569C17.9821 9.89715 16.5655 11.3138 14.8252 11.3138ZM14.8252 6.03279C14.5327 6.03279 14.2538 6.09217 13.9999 6.19949C13.2364 6.52222 12.6994 7.27849 12.6994 8.1569C12.6994 9.0366 13.2364 9.79222 13.9999 10.1145C14.2538 10.2217 14.5327 10.281 14.8252 10.281C14.884 10.281 14.9423 10.2786 14.9999 10.2739C16.0891 10.1846 16.9493 9.26858 16.9493 8.1569C16.9493 7.04522 16.0891 6.12917 14.9999 6.03992C14.9423 6.0352 14.884 6.03279 14.8252 6.03279Z" fill="#6B7682"/>
<path fill-rule="evenodd" clip-rule="evenodd" d="M6.73252 2.99698C7.04577 2.67903 7.47345 2.5 7.91979 2.5H14.3333C14.7014 2.5 14.9999 2.79848 14.9999 3.16667V6.03992C14.9423 6.0352 14.884 6.03279 14.8252 6.03279C14.5327 6.03279 14.2538 6.09217 13.9999 6.19949V3.5H8.33325V7.2451L8.32671 7.3262C8.28796 7.56377 8.08178 7.7451 7.83325 7.7451L4.33325 7.745V16.5H13.9999V10.1145C14.2538 10.2217 14.5327 10.281 14.8252 10.281C14.884 10.281 14.9423 10.2786 14.9999 10.2739V16.8333C14.9999 17.2015 14.7014 17.5 14.3333 17.5H3.99992C3.63173 17.5 3.33325 17.2015 3.33325 16.8333V7.13045C3.33325 6.69273 3.50545 6.27258 3.81265 5.96077L6.73252 2.99698ZM6.24992 13.3333V14.3333H10.8333V13.3333H6.24992ZM6.24992 11.8333V10.8333H12.0833V11.8333H6.24992ZM7.33325 3.81167V6.745L4.45559 6.74554L4.52501 6.66258L7.33325 3.81167Z" fill="#6B7682"/>
</svg>
